<?xml version="1.0" standalone="no"?>
<!DOCTYPE svg PUBLIC "-//W3C//DTD SVG 20010904//EN"
 "http://www.w3.org/TR/2001/REC-SVG-20010904/DTD/svg10.dtd">
<svg version="1.0" xmlns="http://www.w3.org/2000/svg"
 width="260.000000pt" height="260.000000pt" viewBox="0 0 260.000000 260.000000"
 preserveAspectRatio="xMidYMid meet">
<metadata>
Created by potrace 1.11, written by Peter Selinger 2001-2013
</metadata>
<g transform="translate(0.000000,260.000000) scale(0.100000,-0.100000)"
fill="#000000" stroke="none">
<path d="M499 2056 c-6 -5 -230 -16 -342 -16 l-98 0 3 -47 3 -48 87 -29 88
-29 0 -611 0 -611 -90 -28 -90 -29 0 -49 0 -49 315 0 315 0 0 50 0 49 -72 21
c-39 12 -86 24 -105 27 l-33 6 0 213 0 214 125 0 c221 0 372 48 484 155 97 93
141 199 141 343 0 133 -40 234 -129 322 -102 102 -253 150 -477 150 -66 0
-123 -2 -125 -4z m213 -157 c106 -23 182 -78 219 -161 20 -45 23 -69 23 -158
0 -127 -21 -186 -93 -253 -70 -65 -123 -82 -261 -82 l-115 0 -3 324 c-2 256 0
326 10 333 19 12 159 10 220 -3z"/>
<path d="M1909 2055 c-3 -2 -122 -7 -264 -10 l-260 -6 -3 -48 -3 -47 83 -26
83 -26 3 -615 2 -615 -32 -7 c-18 -4 -57 -16 -85 -27 l-53 -19 0 -48 0 -48
333 -7 c357 -8 415 -3 539 44 136 51 251 163 284 276 23 79 20 196 -6 266 -35
95 -121 178 -227 218 l-45 17 58 40 c121 81 182 207 171 350 -12 156 -101 260
-268 309 -67 20 -298 42 -310 29z m169 -171 c58 -17 108 -56 134 -107 18 -34
23 -58 23 -127 0 -75 -3 -91 -27 -131 -33 -56 -88 -106 -142 -130 -37 -16
-137 -24 -248 -20 l-28 1 0 265 0 264 68 4 c85 4 165 -2 220 -19z m-7 -684
c134 -25 221 -104 234 -215 19 -146 -71 -274 -224 -319 -55 -16 -223 -22 -268
-10 l-23 6 0 274 0 274 114 0 c62 0 138 -4 167 -10z"/>
</g>
</svg>
